<svg
        width="600"
        height="180"
        viewBox="0 0 600 180"
        xmlns="http://www.w3.org/2000/svg"
>
  <style type="text/css">
    .st0 {
    fill: rgb(123, 198, 186);
    animation: st0 2.6s;
    }

    .st1 {
    fill: rgb(136, 157, 132);
    animation: st1 2.6s;
    }

    .st2 {
    fill: rgb(147, 122, 87);
    animation: st2 2.6s;
    }

    .st3 {
    fill: rgb(160, 81, 33);
    animation: st3 2.6s;
    }

    @keyframes st0 {
    0% {
    fill: transparent;
    }

    83% {
    fill: transparent;
    }

    100% {
    fill: rgb(123, 198, 186);
    }
    }

    @keyframes st1 {
    0% {
    fill: transparent;
    }

    83% {
    fill: transparent;
    }

    100% {
    fill: rgb(136, 157, 132);
    }
    }

    @keyframes st2 {
    0% {
    fill: transparent;
    }

    83% {
    fill: transparent;
    }

    100% {
    fill: rgb(147, 122, 87);
    }
    }

    @keyframes st3 {
    0% {
    fill: transparent;
    }

    83% {
    fill: transparent;
    }

    100% {
    fill: rgb(160, 81, 33);
    }
    }
  </style>
  <metadata>image/svg+xml</metadata>
  <g>
    <g font-weight="500" font-size="72px" text-anchor="middle">
      <path
              transform="translate(0,236.45616149902344)"
              d="m39.999969,-146.071983l44.460841,0l0,-7.99296l-34.069993,0c0.299736,-1.798416 1.099032,-3.596832 2.297976,-5.195424c1.198944,-1.598592 2.697624,-2.99736 4.396128,-4.296216c1.598592,-1.298856 3.397008,-2.4978 5.195424,-3.49692c1.798416,-0.99912 3.49692,-1.898328 4.9956,-2.697624c1.398768,-0.699384 3.097272,-1.598592 4.9956,-2.597712c1.798416,-0.99912 3.596832,-2.297976 5.195424,-3.796656c1.598592,-1.398768 2.99736,-3.097272 4.196304,-5.095512c1.099032,-1.898328 1.698504,-4.196304 1.698504,-6.794016c0,-2.198064 -0.49956,-4.196304 -1.398768,-6.194544c-0.99912,-1.99824 -2.297976,-3.696744 -3.99648,-5.195424c-1.698504,-1.398768 -3.796656,-2.597712 -6.194544,-3.397008c-2.4978,-0.799296 -5.295336,-1.298856 -8.292696,-1.298856c-3.197184,0 -5.99472,0.399648 -8.49252,1.198944c-2.597712,0.799296 -4.795776,1.698504 -6.694104,2.697624c-1.99824,1.099032 -3.596832,2.198064 -4.795776,3.197184c-1.298856,0.99912 -2.198064,1.798416 -2.697624,2.397888l5.694984,6.394368c0.599472,-0.699384 1.298856,-1.49868 2.297976,-2.4978c0.899208,-0.899208 1.99824,-1.798416 3.297096,-2.597712c1.198944,-0.799296 2.697624,-1.49868 4.296216,-2.098152c1.598592,-0.599472 3.49692,-0.899208 5.49516,-0.899208c1.898328,0 3.596832,0.299736 5.095512,0.799296c1.49868,0.599472 2.797536,1.298856 3.796656,2.098152c0.99912,0.899208 1.698504,1.898328 2.297976,2.99736c0.49956,1.198944 0.799296,2.297976 0.799296,3.397008c0,1.798416 -0.599472,3.397008 -1.698504,4.695864c-1.099032,1.398768 -2.4978,2.597712 -4.196304,3.796656c-1.698504,1.198944 -3.596832,2.297976 -5.595072,3.297096c-2.098152,0.99912 -4.096392,2.098152 -6.094632,3.097272c-3.397008,1.99824 -6.194544,3.896568 -8.292696,5.794896c-2.098152,1.99824 -3.696744,3.99648 -4.895688,6.094632c-1.198944,2.198064 -2.098152,4.396128 -2.4978,6.694104c-0.399648,2.397888 -0.599472,4.895688 -0.599472,7.4934z"
              stroke-linejoin="round"
              stroke-linecap="round"
              stroke-width="2"
              stroke="rgb(123, 198, 186)"
              class="st0"
      />

      <path
              transform="translate(0,236.45616149902344)"
              class="st0"
              d="m152.061343,-175.346202c0,-4.396128 -0.699384,-8.392608 -1.898328,-12.089352c-1.298856,-3.696744 -3.097272,-6.893928 -5.295336,-9.591552c-2.297976,-2.697624 -4.9956,-4.795776 -8.092872,-6.394368c-3.097272,-1.49868 -6.394368,-2.297976 -9.9912,-2.297976c-3.696744,0 -7.093752,0.799296 -10.191024,2.297976c-3.097272,1.598592 -5.794896,3.696744 -7.99296,6.394368c-2.198064,2.697624 -3.99648,5.894808 -5.195424,9.591552c-1.298856,3.696744 -1.898328,7.693224 -1.898328,12.089352c0,4.396128 0.599472,8.49252 1.898328,12.189264c1.198944,3.696744 2.99736,6.893928 5.195424,9.591552c2.198064,2.697624 4.895688,4.795776 7.99296,6.294456c3.097272,1.49868 6.49428,2.198064 10.191024,2.198064c3.596832,0 6.893928,-0.699384 9.9912,-2.198064c3.097272,-1.49868 5.794896,-3.596832 8.092872,-6.294456c2.198064,-2.697624 3.99648,-5.894808 5.295336,-9.591552c1.198944,-3.696744 1.898328,-7.793136 1.898328,-12.189264zm-8.892168,0c0,3.397008 -0.399648,6.394368 -1.198944,9.091992c-0.799296,2.697624 -1.99824,4.9956 -3.397008,6.893928c-1.49868,1.99824 -3.197184,3.49692 -5.195424,4.49604c-1.99824,1.099032 -4.196304,1.598592 -6.594192,1.598592c-2.4978,0 -4.795776,-0.49956 -6.794016,-1.598592c-1.99824,-0.99912 -3.796656,-2.4978 -5.195424,-4.49604c-1.398768,-1.898328 -2.4978,-4.196304 -3.297096,-6.893928c-0.799296,-2.697624 -1.198944,-5.694984 -1.198944,-9.091992c0,-3.197184 0.399648,-6.194544 1.198944,-8.99208c0.799296,-2.697624 1.898328,-4.9956 3.297096,-6.99384c1.398768,-1.99824 3.197184,-3.49692 5.195424,-4.595952c1.99824,-0.99912 4.296216,-1.598592 6.794016,-1.598592c2.397888,0 4.595952,0.599472 6.594192,1.598592c1.99824,1.099032 3.696744,2.597712 5.195424,4.595952c1.398768,1.99824 2.597712,4.296216 3.397008,6.99384c0.799296,2.797536 1.198944,5.794896 1.198944,8.99208z"
              stroke-linejoin="round"
              stroke-linecap="round"
              stroke-width="2"
              stroke="rgb(123, 198, 186)"
              fill="none"
      />
      <path
              transform="translate(0,236.45616149902344)"
              class="st1"
              d="m203.488613,-196.227817l-31.772017,62.84465l9.9912,0l35.668585,-70.937522l-50.355649,0l0,8.092872l36.467881,0z"
              stroke-linejoin="round"
              stroke-linecap="round"
              stroke-width="2"
              stroke="rgb(136, 157, 132)"
              fill="none"
      />
      <path
              transform="translate(0,236.45616149902344)"
              class="st1"
              d="m263.895504,-196.227817l-31.772017,62.84465l9.9912,0l35.668585,-70.937522l-50.355649,0l0,8.092872l36.467881,0z"
              stroke-linejoin="round"
              stroke-linecap="round"
              stroke-width="2"
              stroke="rgb(136, 157, 132)"
              fill="none"
      />
      <path
              transform="translate(0,236.45616149902344)"
              class="st2"
              d="m311.313811,-146.071981l8.99208,0l0,-53.952481l-8.99208,0l0,53.952481zm-24.478441,-70.937522l0,7.99296l57.948961,0l0,-7.99296l-57.948961,0z"
              stroke-linejoin="round"
              stroke-linecap="round"
              stroke-width="2"
              stroke="rgb(147, 122, 87)"
              fill="none"
      />
      <path
              transform="translate(0,236.45616149902344)"
              class="st2"
              d="m370.833925,-209.016542l38.266297,0l0,-7.99296l-47.258377,0l0,21.980641l8.99208,0l0,-13.98768zm-8.99208,54.951601l0,7.99296l48.157585,0l0,-7.99296l-48.157585,0zm8.99208,-24.478441l33.270697,0l0,-7.4934l-42.262777,0l0,22.979761l8.99208,0l0,-15.48636z"
              stroke-linejoin="round"
              stroke-linecap="round"
              stroke-width="2"
              stroke="rgb(147, 122, 87)"
              fill="none"
      />
      <path
              transform="translate(0,236.45616149902344)"
              class="st3"
              d="m433.902504,-191.531952c0.99912,-3.297096 2.597712,-6.294456 4.695864,-8.892168c1.99824,-2.597712 4.595952,-4.795776 7.593312,-6.394368c2.99736,-1.598592 6.49428,-2.4978 10.49076,-2.4978c1.798416,0 3.596832,0.199824 5.49516,0.599472c1.798416,0.399648 3.596832,1.099032 5.395248,1.99824c1.698504,0.99912 3.397008,2.198064 4.895688,3.696744c1.49868,1.598592 2.797536,3.49692 3.896568,5.694984l7.093752,-4.595952c-2.198064,-4.595952 -5.595072,-8.292696 -10.091112,-11.190144c-4.595952,-2.797536 -9.9912,-4.296216 -16.285656,-4.296216c-5.395248,0 -10.091112,1.099032 -14.287416,3.097272c-4.296216,2.098152 -7.793136,4.795776 -10.690584,8.192784c-2.897448,3.397008 -5.095512,7.193664 -6.594192,11.389968c-1.099032,2.99736 -1.698504,5.99472 -1.99824,8.892168l9.091992,0c0.299736,-1.898328 0.699384,-3.796656 1.298856,-5.694984zm43.361809,25.477561c-0.99912,2.198064 -2.297976,4.096392 -3.896568,5.694984c-1.598592,1.598592 -3.297096,2.897448 -4.9956,3.896568c-1.898328,0.99912 -3.696744,1.798416 -5.694984,2.198064c-1.99824,0.49956 -3.896568,0.699384 -5.694984,0.699384c-3.596832,0 -6.794016,-0.699384 -9.791376,-2.297976c-2.99736,-1.49868 -5.595072,-3.596832 -7.793136,-6.194544c-2.297976,-2.597712 -3.99648,-5.49516 -5.195424,-8.892168c-0.799296,-2.098152 -1.298856,-4.196304 -1.598592,-6.49428l-9.091992,0c0.399648,2.99736 1.099032,5.894808 2.198064,8.792256c1.598592,4.396128 3.896568,8.292696 6.893928,11.689704c2.99736,3.397008 6.49428,6.194544 10.590672,8.292696c3.99648,2.198064 8.49252,3.197184 13.388208,3.197184c2.697624,0 5.49516,-0.299736 8.392608,-1.099032c2.797536,-0.699384 5.49516,-1.698504 8.092872,-3.197184c2.597712,-1.298856 4.895688,-3.097272 6.893928,-5.095512c1.99824,-1.99824 3.596832,-4.396128 4.795776,-7.093752l-7.4934,-4.096392z"
              stroke-linejoin="round"
              stroke-linecap="round"
              stroke-width="2"
              stroke="rgb(160, 81, 33)"
              fill="none"
      />
      <path
              transform="translate(0,236.45616149902344)"
              class="st3"
              d="m502.950244,-146.071981l8.99208,0l0,-70.937522l-8.99208,0l0,70.937522zm48.057673,-70.937522l0,30.672985l-31.072633,0l0,7.99296l31.072633,0l0,32.271577l8.99208,0l0,-70.937522l-8.99208,0z"
              stroke-linejoin="round"
              stroke-linecap="round"
              stroke-width="2"
              stroke="rgb(160, 81, 33)"
              fill="none"
      />
    </g>
  </g>
</svg>
